<svg width="32" height="32" viewBox="0 0 32 32" fill="none" xmlns="http://www.w3.org/2000/svg">
  <!-- Main water drop shape -->
  <path d="M16 1C16 1 7 10 7 18C7 23.5228 11.4772 28 17 28H15C20.5228 28 25 23.5228 25 18C25 10 16 1 16 1Z" fill="url(#gradient1)"/>
  
  <!-- Inner water highlight -->
  <path d="M16 4C16 4 10 11 10 17C10 21.4183 13.5817 25 18 25H14C18.4183 25 22 21.4183 22 17C22 11 16 4 16 4Z" fill="url(#gradient2)" opacity="0.8"/>
  
  <!-- Monitoring waves -->
  <circle cx="16" cy="16" r="3" fill="none" stroke="#ffffff" stroke-width="0.8" opacity="0.7"/>
  <circle cx="16" cy="16" r="5" fill="none" stroke="#ffffff" stroke-width="0.6" opacity="0.5"/>
  
  <!-- Central dot -->
  <circle cx="16" cy="16" r="1.5" fill="#ffffff" opacity="0.9"/>
  
  <!-- Quality bars -->
  <rect x="12.5" y="19" width="1" height="4" fill="#4ade80" rx="0.5"/>
  <rect x="14" y="17.5" width="1" height="5.5" fill="#22c55e" rx="0.5"/>
  <rect x="15.5" y="16.5" width="1" height="6.5" fill="#16a34a" rx="0.5"/>
  <rect x="17" y="17.5" width="1" height="5.5" fill="#22c55e" rx="0.5"/>
  <rect x="18.5" y="19" width="1" height="4" fill="#4ade80" rx="0.5"/>
  
  <!-- Gradients -->
  <defs>
    <linearGradient id="gradient1" x1="0%" y1="0%" x2="100%" y2="100%">
      <stop offset="0%" style="stop-color:#3b82f6;stop-opacity:1" />
      <stop offset="50%" style="stop-color:#1d4ed8;stop-opacity:1" />
      <stop offset="100%" style="stop-color:#1e40af;stop-opacity:1" />
    </linearGradient>
    <linearGradient id="gradient2" x1="0%" y1="0%" x2="100%" y2="100%">
      <stop offset="0%" style="stop-color:#60a5fa;stop-opacity:1" />
      <stop offset="100%" style="stop-color:#3b82f6;stop-opacity:1" />
    </linearGradient>
  </defs>
</svg>
